<svg width="132" height="32" viewBox="0 0 132 32" fill="none" xmlns="http://www.w3.org/2000/svg">
<path d="M45.738 23H48.996L44.424 10.364H40.86L36.288 23H39.51L40.266 20.768H44.982L45.738 23ZM44.19 18.392H41.076L42.624 13.766L44.19 18.392ZM50.3875 10.364V23H57.4975V20.624H53.4655V10.364H50.3875ZM58.2816 12.83H61.6296V23H64.7076V12.83H68.0556V10.364H58.2816V12.83ZM74.3344 10.364H69.6004V23H74.3344C78.3664 23 80.9584 20.426 80.9584 16.682C80.9584 12.92 78.3664 10.364 74.3344 10.364ZM72.6784 20.336V12.992H74.1364C76.4584 12.992 77.8264 14.36 77.8264 16.682C77.8264 19.004 76.4584 20.336 74.1364 20.336H72.6784ZM90.4185 10.364H82.6785V23H90.4185V20.534H85.7565V17.762H89.8785V15.386H85.7565V12.83H90.4185V10.364ZM91.8948 16.664C91.8948 20.444 94.5228 23.09 98.2488 23.09C101.255 23.09 103.523 21.416 104.243 18.68H100.859C100.337 19.76 99.3828 20.3 98.2128 20.3C96.3228 20.3 95.0268 18.896 95.0268 16.664C95.0268 14.432 96.3228 13.028 98.2128 13.028C99.3828 13.028 100.337 13.568 100.859 14.648H104.243C103.523 11.912 101.255 10.22 98.2488 10.22C94.5228 10.22 91.8948 12.884 91.8948 16.664ZM113.454 23H117.216L112.14 16.556L117.036 10.364H113.418L109.206 15.908V10.364H106.128V23H109.206V17.42L113.454 23Z" fill="#1B1A21"/>
<rect x="0.5" width="32" height="32" rx="10" fill="url(#paint0_linear_75_277)"/>
<circle cx="16.5" cy="16" r="8" stroke="white" stroke-width="2"/>
<defs>
<linearGradient id="paint0_linear_75_277" x1="10.9727" y1="5.58767e-07" x2="37.7552" y2="5.26436" gradientUnits="userSpaceOnUse">
<stop stop-color="#50C9C3"/>
</linearGradient>
</defs>
</svg>
